<svg xmlns="http://www.w3.org/2000/svg" width="47.722" height="46.739" viewBox="0 0 47.722 46.739">
  <g id="Сгруппировать_280" data-name="Сгруппировать 280" transform="translate(-2497.862 -5195.743)">
    <path id="Контур_209" data-name="Контур 209" d="M2535.611,5230.756h-20.926a.753.753,0,1,0,0,1.505h20.926a.753.753,0,1,0,0-1.505Z" fill="#fff"/>
    <path id="Контур_210" data-name="Контур 210" d="M2535.611,5225.468h-20.926a.753.753,0,1,0,0,1.505h20.926a.753.753,0,1,0,0-1.505Z" fill="#fff"/>
    <path id="Контур_211" data-name="Контур 211" d="M2513.932,5220.929a.753.753,0,0,0,.753.753H2528a.753.753,0,1,0,0-1.505h-13.316A.753.753,0,0,0,2513.932,5220.929Z" fill="#fff"/>
    <path id="Контур_212" data-name="Контур 212" d="M2543.557,5201.35l-2.863-3.107s-.449-.492-.589-.648c-1.238-1.376-1.779-1.852-3.994-1.852h-25.979a3.055,3.055,0,0,0-3.052,3.051v1.757h-6.216a3.007,3.007,0,0,0-3,3v9.113a3.006,3.006,0,0,0,3,3h6.216v9.4a.752.752,0,1,0,1.5,0v-9.4h3.908a.752.752,0,1,0,0-1.5h-11.629a1.5,1.5,0,0,1-1.5-1.5v-9.113a1.5,1.5,0,0,1,1.5-1.5h19.827a1.5,1.5,0,0,1,1.5,1.5v9.113a1.5,1.5,0,0,1-1.5,1.5h-4.749a.752.752,0,1,0,0,1.5h4.749a3.007,3.007,0,0,0,3-3v-9.113a3.008,3.008,0,0,0-3-3h-12.106v-1.757a1.548,1.548,0,0,1,1.547-1.545h25.225l0,6.568a3.056,3.056,0,0,0,3.055,3.051h5.671v32.563a1.549,1.549,0,0,1-1.549,1.546h-32.4a1.549,1.549,0,0,1-1.547-1.546v-10.909a.752.752,0,1,0-1.5,0v9.778l.023,1.506a3.056,3.056,0,0,0,3.029,2.676h32.4a3.057,3.057,0,0,0,3.055-3.051v-32.52C2545.584,5204.25,2545.5,5203.467,2543.557,5201.35Zm-5.15,4.012a1.549,1.549,0,0,1-1.549-1.544l.005-6.547c.99.073,1.254.366,2.122,1.331.144.16.3.335.476.525l1.439,1.562.016.016,1.533,1.665c1.2,1.3,1.513,1.845,1.6,2.992Z" fill="#fff"/>
    <path id="Контур_213" data-name="Контур 213" d="M2505.4,5204.887h-1.8a.768.768,0,0,0-.565.233.778.778,0,0,0-.232.574v5.331a.759.759,0,0,0,.227.56.769.769,0,0,0,1.31-.541V5209.5h1.158a2.292,2.292,0,0,0,1.689-.631,2.449,2.449,0,0,0-.038-3.334A2.42,2.42,0,0,0,2505.4,5204.887Zm.56,2.989a.886.886,0,0,1-.645.275h-.978v-1.888h.987a.853.853,0,0,1,.65.28.96.96,0,0,1,.261.678A.891.891,0,0,1,2505.959,5207.876Z" fill="#fff"/>
    <path id="Контур_214" data-name="Контур 214" d="M2514.129,5206.695a2.966,2.966,0,0,0-.945-1.181,3.609,3.609,0,0,0-2.182-.617h-1.585a.745.745,0,0,0-.56.237.759.759,0,0,0-.228.541v5.284a.757.757,0,0,0,.218.56.845.845,0,0,0,.579.208h1.708a3.2,3.2,0,0,0,2.221-.749,3.467,3.467,0,0,0,1.111-2.685A3.8,3.8,0,0,0,2514.129,5206.695Zm-1.742,3.088a1.66,1.66,0,0,1-1.31.559h-.911v-4.05h.826a1.806,1.806,0,0,1,1.381.54,2.053,2.053,0,0,1,.508,1.461A2.173,2.173,0,0,1,2512.387,5209.783Z" fill="#fff"/>
    <path id="Контур_215" data-name="Контур 215" d="M2516.233,5211.832a.736.736,0,0,0,.546-.228.746.746,0,0,0,.223-.541v-2.039h1.462a.716.716,0,0,0,.522-.2.681.681,0,0,0-.005-.987.726.726,0,0,0-.517-.2H2517v-1.337h1.728a.654.654,0,0,0,.493-.209.678.678,0,0,0,.2-.484.686.686,0,0,0-.2-.507.667.667,0,0,0-.488-.2h-2.487a.744.744,0,0,0-.56.237.77.77,0,0,0-.228.55v5.388a.72.72,0,0,0,.238.541A.758.758,0,0,0,2516.233,5211.832Z" fill="#fff"/>
  </g>
</svg>
