<svg xmlns="http://www.w3.org/2000/svg" xmlns:xlink="http://www.w3.org/1999/xlink" width="80.27" height="62.955" viewBox="0 0 80.27 62.955">
  <defs>
    <linearGradient id="linear-gradient" x1="0.412" y1="0.451" x2="2.205" y2="2.516" gradientUnits="objectBoundingBox">
      <stop offset="0" stop-color="#c10010"/>
      <stop offset="0.117" stop-color="#a00a24"/>
      <stop offset="0.343" stop-color="#671b49"/>
      <stop offset="0.553" stop-color="#3a2966"/>
      <stop offset="0.739" stop-color="#1a337a"/>
      <stop offset="0.894" stop-color="#073987"/>
      <stop offset="1" stop-color="#003c8c"/>
    </linearGradient>
    <linearGradient id="linear-gradient-2" x1="0.146" y1="0.213" x2="4.66" y2="5.044" xlink:href="#linear-gradient"/>
  </defs>
  <g id="Сгруппировать_46" data-name="Сгруппировать 46" transform="translate(-284.966 -1508.888)">
    <path id="Контур_52" data-name="Контур 52" d="M363.838,1527.315h-5.884v-17.03a1.4,1.4,0,0,0-1.4-1.4H299.769a1.4,1.4,0,0,0-1.4,1.4v4.251h-4.726a1.4,1.4,0,0,0-1.4,1.4v5.734h-5.884a1.4,1.4,0,0,0-1.4,1.4v47.38a1.4,1.4,0,0,0,1.4,1.4h77.474a1.4,1.4,0,0,0,1.4-1.4v-41.732A1.4,1.4,0,0,0,363.838,1527.315Zm-62.671-15.632h53.992v15.632H351.83V1524a1.4,1.4,0,0,0-.409-.988l-8.066-8.066a1.4,1.4,0,0,0-.988-.409h-41.2Zm42.6,7.625,3.293,3.293h-3.293Zm-48.722-1.977h45.926V1524a1.4,1.4,0,0,0,1.4,1.4h6.668v1.918h-20.54l-4.979-5.215a1.4,1.4,0,0,0-1.011-.433H295.043Zm67.4,51.717h-74.68v-44.586h34.146l4.979,5.216a1.4,1.4,0,0,0,1.01.432h34.545Z" fill="url(#linear-gradient)"/>
    <path id="Контур_53" data-name="Контур 53" d="M340.294,1544.2l-14.635-7.754a1.4,1.4,0,0,0-1.315,0L309.9,1544.2a1.4,1.4,0,1,0,1.322,2.463l1.092-.586v15.718a1.4,1.4,0,0,0,1.4,1.4h7.49a1.4,1.4,0,0,0,1.4-1.4v-6.685h4.987v6.685a1.4,1.4,0,0,0,1.4,1.4h7.489a1.4,1.4,0,0,0,1.4-1.4v-15.715l1.114.591a1.4,1.4,0,0,0,1.308-2.471Zm-5.218,16.2h-4.694v-6.684a1.4,1.4,0,0,0-1.4-1.4H321.2a1.4,1.4,0,0,0-1.4,1.4v6.684h-4.694v-15.82l9.9-5.312,10.067,5.334Z" fill="url(#linear-gradient-2)"/>
  </g>
</svg>
