<svg xmlns="http://www.w3.org/2000/svg" xmlns:xlink="http://www.w3.org/1999/xlink" width="76.212" height="80.271" viewBox="0 0 76.212 80.271">
  <defs>
    <linearGradient id="linear-gradient" x1="-0.388" y1="-0.107" x2="1.5" y2="1.513" gradientUnits="objectBoundingBox">
      <stop offset="0" stop-color="#c10010"/>
      <stop offset="0.117" stop-color="#a00a24"/>
      <stop offset="0.343" stop-color="#671b49"/>
      <stop offset="0.553" stop-color="#3a2966"/>
      <stop offset="0.739" stop-color="#1a337a"/>
      <stop offset="0.894" stop-color="#073987"/>
      <stop offset="1" stop-color="#003c8c"/>
    </linearGradient>
    <linearGradient id="linear-gradient-2" x1="-31.679" y1="-5.17" x2="19.783" y2="3.897" xlink:href="#linear-gradient"/>
    <linearGradient id="linear-gradient-3" x1="-23.034" y1="-3.646" x2="28.429" y2="5.421" xlink:href="#linear-gradient"/>
    <linearGradient id="linear-gradient-4" x1="-6.409" y1="-11.697" x2="9.931" y2="16.92" xlink:href="#linear-gradient"/>
    <linearGradient id="linear-gradient-5" x1="-5.34" y1="-9.921" x2="10.999" y2="18.696" xlink:href="#linear-gradient"/>
  </defs>
  <g id="Сгруппировать_48" data-name="Сгруппировать 48" transform="translate(-652.433 -1500.23)">
    <path id="Контур_64" data-name="Контур 64" d="M710.274,1549.758a1.385,1.385,0,0,0-.141-.069,32.057,32.057,0,0,0-4.872-1.88,18.06,18.06,0,0,0,1.5-2.46l2.428-.232a1.4,1.4,0,0,0,1.264-1.392V1541.4a1.389,1.389,0,0,0,1.068.506,9.3,9.3,0,0,0,1.4-18.5v-4.267c0-10.426-10.038-18.909-22.376-18.909s-22.376,8.483-22.376,18.909v4.267a9.3,9.3,0,0,0,1.4,18.5,1.4,1.4,0,0,0,1.4-1.4v-.223h1.691a18.061,18.061,0,0,0,3.167,7.522,31.955,31.955,0,0,0-4.857,1.873,1.379,1.379,0,0,0-.159.078,32.848,32.848,0,0,0-18.368,29.342,1.384,1.384,0,0,0,1.4,1.381,1.414,1.414,0,0,0,1.4-1.416,30.016,30.016,0,0,1,16.135-26.469l10.5,8.06a1.4,1.4,0,0,0,1.708,0l1.29-1,4.089,4.21-4.788,14.811a1.4,1.4,0,0,0,2.66.859l3.716-11.5,3.716,11.5a1.4,1.4,0,0,0,1.329.969,1.377,1.377,0,0,0,.431-.069,1.4,1.4,0,0,0,.9-1.759l-4.787-14.811,4.088-4.21,1.29,1a1.4,1.4,0,0,0,1.709,0l10.5-8.06a30.016,30.016,0,0,1,16.135,26.469v.035a1.384,1.384,0,0,0,1.4,1.381,1.413,1.413,0,0,0,1.4-1.416A32.827,32.827,0,0,0,710.274,1549.758Zm-35.643-23.6c-.467-3.809-.59-10.552,3.333-14.97,2.649-2.983,6.786-4.483,12.334-4.483a38.211,38.211,0,0,1,5.1.368c.032,0,.063.008.1.01a11.465,11.465,0,0,1,7.332,4.067c2.609,3.144,3.7,7.746,3.258,13.7a16.158,16.158,0,0,1-8.052-7.179,15.66,15.66,0,0,1-.813-1.919,1.4,1.4,0,0,0-2.578-.142,7.84,7.84,0,0,1-3.525,3.512,35.863,35.863,0,0,1-8.681,3.215C679.508,1523.087,677.066,1523.718,674.631,1526.155Zm35.488,11.336h-1.431c0-.1.007-.192.007-.289v-9.5h1.424Zm7.912-4.892a6.524,6.524,0,0,1-5.116,6.362v-12.726A6.526,6.526,0,0,1,718.031,1532.6Zm-47.072-13.46c0-8.885,8.783-16.114,19.58-16.114s19.58,7.229,19.58,16.114v5.771h-1.245c.468-6.629-.835-11.856-3.9-15.548a14.3,14.3,0,0,0-9.242-5.067c-9.12-1.226-15.8.467-19.86,5.033-4.136,4.657-4.522,11.171-4.185,15.582h-.73v-5.771Zm-7.912,13.46a6.526,6.526,0,0,1,5.116-6.364v12.726A6.524,6.524,0,0,1,663.047,1532.6Zm7.912,4.892V1527.7h1.062c.146.9.29,1.549.362,1.852v7.645c0,.1.006.193.007.289Zm4.219-7.652c2.438-3.368,4.543-3.92,7.955-4.8a38.76,38.76,0,0,0,9.291-3.453,11.381,11.381,0,0,0,3.207-2.475,19.178,19.178,0,0,0,10.269,8.671v9.422a15.257,15.257,0,0,1-1.043,5.521l-10.569,1.014a4.156,4.156,0,1,0,.265,2.783l8.785-.843a15.353,15.353,0,0,1-28.16-8.475Zm7.532,27.945-8.456-6.49a29.167,29.167,0,0,1,3.581-1.137,18.137,18.137,0,0,0,8.606,4.729Zm7.829,3.7-3.455-3.558,3.312-2.572c.048,0,.1,0,.143,0s.095,0,.143,0l3.313,2.572Zm7.83-3.7-3.732-2.9a18.137,18.137,0,0,0,8.606-4.729,29.171,29.171,0,0,1,3.581,1.137Z" fill="url(#linear-gradient)"/>
    <path id="Контур_65" data-name="Контур 65" d="M712.493,1566.162a1.4,1.4,0,0,0-1.4,1.4V1579.1a1.4,1.4,0,0,0,2.8,0V1567.56A1.4,1.4,0,0,0,712.493,1566.162Z" fill="url(#linear-gradient-2)"/>
    <path id="Контур_66" data-name="Контур 66" d="M668.585,1566.162a1.4,1.4,0,0,0-1.4,1.4V1579.1a1.4,1.4,0,0,0,2.8,0V1567.56A1.4,1.4,0,0,0,668.585,1566.162Z" fill="url(#linear-gradient-3)"/>
    <path id="Контур_67" data-name="Контур 67" d="M694.933,1530.406a2.262,2.262,0,0,0,4.461.38h2.5a1.4,1.4,0,1,0,0-2.8h-6.01a1.394,1.394,0,0,0-.952,2.416Z" fill="url(#linear-gradient-4)"/>
    <path id="Контур_68" data-name="Контур 68" d="M683.888,1532.533a2.268,2.268,0,0,0,2.257-2.127,1.394,1.394,0,0,0-.952-2.416h-6.01a1.4,1.4,0,1,0,0,2.8h2.5A2.271,2.271,0,0,0,683.888,1532.533Z" fill="url(#linear-gradient-5)"/>
  </g>
</svg>
