<svg xmlns="http://www.w3.org/2000/svg" xmlns:xlink="http://www.w3.org/1999/xlink" width="80.271" height="80.271" viewBox="0 0 80.271 80.271">
  <defs>
    <linearGradient id="linear-gradient" x1="-1.881" y1="-1.624" x2="-0.089" y2="-0.004" gradientUnits="objectBoundingBox">
      <stop offset="0" stop-color="#c10010"/>
      <stop offset="0.117" stop-color="#a00a24"/>
      <stop offset="0.343" stop-color="#671b49"/>
      <stop offset="0.553" stop-color="#3a2966"/>
      <stop offset="0.739" stop-color="#1a337a"/>
      <stop offset="0.894" stop-color="#073987"/>
      <stop offset="1" stop-color="#003c8c"/>
    </linearGradient>
    <linearGradient id="linear-gradient-2" x1="-5.206" y1="-5.518" x2="-0.808" y2="-0.809" xlink:href="#linear-gradient"/>
    <linearGradient id="linear-gradient-3" x1="-27.275" y1="-60.453" x2="-6.08" y2="-13.941" xlink:href="#linear-gradient"/>
    <linearGradient id="linear-gradient-4" x1="-18.881" y1="-62.758" x2="-4.63" y2="-16.246" xlink:href="#linear-gradient"/>
    <linearGradient id="linear-gradient-5" x1="-19.677" y1="-65.357" x2="-5.427" y2="-18.845" xlink:href="#linear-gradient"/>
    <linearGradient id="linear-gradient-6" x1="-30.559" y1="-67.661" x2="-9.365" y2="-21.149" xlink:href="#linear-gradient"/>
    <linearGradient id="linear-gradient-7" x1="-68.469" y1="-25.164" x2="-17.008" y2="-6.015" xlink:href="#linear-gradient"/>
    <linearGradient id="linear-gradient-8" x1="-70.49" y1="-19.347" x2="-19.028" y2="-4.96" xlink:href="#linear-gradient"/>
    <linearGradient id="linear-gradient-9" x1="-72.711" y1="-19.968" x2="-21.249" y2="-5.58" xlink:href="#linear-gradient"/>
    <linearGradient id="linear-gradient-10" x1="-74.731" y1="-27.494" x2="-23.269" y2="-8.345" xlink:href="#linear-gradient"/>
  </defs>
  <g id="Сгруппировать_47" data-name="Сгруппировать 47" transform="translate(-1387.365 -1500.23)">
    <path id="Контур_54" data-name="Контур 54" d="M1467.636,1510.88c0-5.872-3.9-10.65-8.686-10.65h-62.9c-4.789,0-8.686,4.778-8.686,10.65V1579.1a1.4,1.4,0,0,0,1.4,1.4h70.187a1.4,1.4,0,0,0,1.4-1.4v-57.724C1464.473,1520.555,1467.636,1516.168,1467.636,1510.88Zm-77.475,66.825V1510.88c0-4.331,2.642-7.854,5.89-7.854,3.218,0,5.838,3.46,5.886,7.736h-8.048a1.4,1.4,0,0,0-1.4,1.4c0,4.128,2.129,7.846,5.3,9.25l.009,0a1.356,1.356,0,0,0,.239.077c.012,0,.024.009.035.011.039.008.08.008.119.013a1.547,1.547,0,0,0,.164.016h59.2V1577.7Zm7.826-59.417a7.241,7.241,0,0,1-2.6-4.73h6.185A7.247,7.247,0,0,1,1397.987,1518.288Zm60.963.447h-57.028a11.5,11.5,0,0,0,2.7-6.107,1.374,1.374,0,0,0,.086-.468,1.3,1.3,0,0,0-.019-.187c.03-.361.051-.724.051-1.093a11.8,11.8,0,0,0-2.841-7.854h57.054c3.248,0,5.89,3.523,5.89,7.854S1462.2,1518.735,1458.95,1518.735Z" fill="url(#linear-gradient)"/>
    <path id="Контур_55" data-name="Контур 55" d="M1402.786,1539.4l1.183-.635V1555a1.4,1.4,0,0,0,1.4,1.4h7.706a1.4,1.4,0,0,0,1.4-1.4v-6.917h5.211V1555a1.4,1.4,0,0,0,1.4,1.4h7.706a1.4,1.4,0,0,0,1.4-1.4v-16.235l1.205.639a1.4,1.4,0,0,0,1.308-2.471l-15.058-7.978a1.4,1.4,0,0,0-1.315,0l-14.86,7.974a1.4,1.4,0,1,0,1.322,2.463Zm14.2-7.621,10.4,5.509V1553.6h-4.911v-6.918a1.4,1.4,0,0,0-1.4-1.4h-8.007a1.4,1.4,0,0,0-1.4,1.4v6.918h-4.911v-16.342Z" fill="url(#linear-gradient-2)"/>
    <path id="Контур_56" data-name="Контур 56" d="M1406.119,1561.86h-3.994a1.4,1.4,0,1,0,0,2.8h3.994a1.4,1.4,0,0,0,0-2.8Z" fill="url(#linear-gradient-3)"/>
    <path id="Контур_57" data-name="Контур 57" d="M1420.722,1561.86h-7.3a1.4,1.4,0,1,0,0,2.8h7.3a1.4,1.4,0,0,0,0-2.8Z" fill="url(#linear-gradient-4)"/>
    <path id="Контур_58" data-name="Контур 58" d="M1435.325,1561.86h-7.3a1.4,1.4,0,1,0,0,2.8h7.3a1.4,1.4,0,0,0,0-2.8Z" fill="url(#linear-gradient-5)"/>
    <path id="Контур_59" data-name="Контур 59" d="M1446.62,1561.86h-3.994a1.4,1.4,0,1,0,0,2.8h3.994a1.4,1.4,0,0,0,0-2.8Z" fill="url(#linear-gradient-6)"/>
    <path id="Контур_60" data-name="Контур 60" d="M1439.964,1535.582a1.4,1.4,0,0,0,1.4-1.4v-3.994a1.4,1.4,0,0,0-2.8,0v3.994A1.4,1.4,0,0,0,1439.964,1535.582Z" fill="url(#linear-gradient-7)"/>
    <path id="Контур_61" data-name="Контур 61" d="M1439.964,1548.063a1.4,1.4,0,0,0,1.4-1.4v-6.24a1.4,1.4,0,1,0-2.8,0v6.24A1.4,1.4,0,0,0,1439.964,1548.063Z" fill="url(#linear-gradient-8)"/>
    <path id="Контур_62" data-name="Контур 62" d="M1439.964,1560.544a1.4,1.4,0,0,0,1.4-1.4v-6.241a1.4,1.4,0,0,0-2.8,0v6.241A1.4,1.4,0,0,0,1439.964,1560.544Z" fill="url(#linear-gradient-9)"/>
    <path id="Контур_63" data-name="Контур 63" d="M1439.964,1563.989a1.4,1.4,0,0,0-1.4,1.4v3.994a1.4,1.4,0,0,0,2.8,0v-3.994A1.4,1.4,0,0,0,1439.964,1563.989Z" fill="url(#linear-gradient-10)"/>
  </g>
</svg>
