<svg xmlns="http://www.w3.org/2000/svg" xmlns:xlink="http://www.w3.org/1999/xlink" width="91.799" height="91.799" viewBox="0 0 91.799 91.799">
  <defs>
    <linearGradient id="linear-gradient" x1="1.726" y1="1.668" x2="0.112" y2="0.13" gradientUnits="objectBoundingBox">
      <stop offset="0" stop-color="#c10010"/>
      <stop offset="0.117" stop-color="#a00a24"/>
      <stop offset="0.343" stop-color="#671b49"/>
      <stop offset="0.553" stop-color="#3a2966"/>
      <stop offset="0.739" stop-color="#1a337a"/>
      <stop offset="0.894" stop-color="#073987"/>
      <stop offset="1" stop-color="#003c8c"/>
    </linearGradient>
  </defs>
  <g id="Сгруппировать_302" data-name="Сгруппировать 302" transform="translate(-3981.598 -3527.967)">
    <path id="Контур_258" data-name="Контур 258" d="M4027.5,3527.967a45.9,45.9,0,1,0,45.9,45.9A45.9,45.9,0,0,0,4027.5,3527.967Zm0,86.745a40.845,40.845,0,1,1,40.845-40.845A40.845,40.845,0,0,1,4027.5,3614.712Z" fill="url(#linear-gradient)"/>
    <g id="Сгруппировать_301" data-name="Сгруппировать 301">
      <circle id="Эллипс_19" data-name="Эллипс 19" cx="36.642" cy="36.642" r="36.642" transform="translate(3990.855 3537.224)" fill="url(#linear-gradient)"/>
      <g id="Сгруппировать_300" data-name="Сгруппировать 300">
        <g id="Сгруппировать_299" data-name="Сгруппировать 299">
          <path id="Контур_259" data-name="Контур 259" d="M4040.093,3579.049a4.27,4.27,0,0,0-3.095-1.419,4.414,4.414,0,0,0-3.132,1.41l-2.893,2.884c-.238-.128-.476-.247-.7-.366-.33-.165-.641-.32-.907-.485a31.466,31.466,0,0,1-7.535-6.867,18.524,18.524,0,0,1-2.472-3.9c.75-.687,1.446-1.4,2.124-2.088.256-.256.513-.522.769-.778a4.2,4.2,0,0,0,0-6.336l-2.5-2.5c-.284-.284-.577-.577-.851-.87-.55-.567-1.126-1.153-1.722-1.7a4.333,4.333,0,0,0-3.067-1.346,4.483,4.483,0,0,0-3.113,1.346l-.019.019-3.113,3.14a6.7,6.7,0,0,0-1.987,4.258,16.066,16.066,0,0,0,1.172,6.794,39.442,39.442,0,0,0,7,11.683,43.086,43.086,0,0,0,14.348,11.235,22.37,22.37,0,0,0,8.058,2.381c.192.009.393.018.576.018a6.9,6.9,0,0,0,5.284-2.271c.009-.018.027-.027.036-.045a20.853,20.853,0,0,1,1.6-1.658c.393-.375.8-.769,1.19-1.181a4.571,4.571,0,0,0,1.383-3.168,4.406,4.406,0,0,0-1.41-3.141Zm3.278,9.642c-.009,0-.009.009,0,0-.357.385-.724.732-1.117,1.117a24.073,24.073,0,0,0-1.768,1.831,4.412,4.412,0,0,1-3.442,1.456c-.138,0-.284,0-.422-.009a19.854,19.854,0,0,1-7.142-2.143,40.658,40.658,0,0,1-13.514-10.584,37.176,37.176,0,0,1-6.593-10.979,13.07,13.07,0,0,1-1.025-5.732,4.2,4.2,0,0,1,1.263-2.719l3.123-3.122a2.077,2.077,0,0,1,1.391-.651,1.958,1.958,0,0,1,1.337.641l.028.028c.558.522,1.089,1.062,1.648,1.639.284.293.577.586.87.888l2.5,2.5a1.747,1.747,0,0,1,0,2.838c-.265.266-.522.531-.787.788-.769.787-1.5,1.52-2.3,2.234-.019.018-.037.027-.046.046a1.865,1.865,0,0,0-.476,2.078l.027.082a20.05,20.05,0,0,0,2.958,4.826l.009.009a33.571,33.571,0,0,0,8.131,7.4,12.431,12.431,0,0,0,1.126.614c.329.165.641.32.906.485.037.018.074.046.11.064a1.985,1.985,0,0,0,.907.229,1.953,1.953,0,0,0,1.391-.632l3.132-3.131a2.073,2.073,0,0,1,1.383-.687,1.864,1.864,0,0,1,1.318.669l.018.018,5.046,5.045A1.811,1.811,0,0,1,4043.371,3588.691Z" fill="#fff"/>
          <path id="Контур_260" data-name="Контур 260" d="M4029.252,3562.5a11.784,11.784,0,0,1,9.595,9.595,1.229,1.229,0,0,0,1.218,1.026,1.662,1.662,0,0,0,.211-.018,1.238,1.238,0,0,0,1.016-1.429,14.251,14.251,0,0,0-11.61-11.61,1.242,1.242,0,0,0-1.428,1.007A1.223,1.223,0,0,0,4029.252,3562.5Z" fill="#fff"/>
          <path id="Контур_261" data-name="Контур 261" d="M4049.139,3571.312a23.459,23.459,0,0,0-19.118-19.118,1.234,1.234,0,1,0-.4,2.435,20.959,20.959,0,0,1,17.086,17.086,1.228,1.228,0,0,0,1.217,1.026,1.647,1.647,0,0,0,.211-.019A1.212,1.212,0,0,0,4049.139,3571.312Z" fill="#fff"/>
        </g>
      </g>
    </g>
  </g>
</svg>
