<svg id="Capa_1" enable-background="new 0 0 512 512" height="512" viewBox="0 0 512 512" width="512" xmlns="http://www.w3.org/2000/svg"><g><path d="m499.5 96.989h-24.628c-4.143 0-7.5 3.358-7.5 7.5s3.357 7.5 7.5 7.5h22.128v15h-81v-15h24.149c4.143 0 7.5-3.358 7.5-7.5s-3.357-7.5-7.5-7.5h-24.149v-47.241c5.699-1.161 10-6.211 10-12.248v-25c0-6.893-5.607-12.5-12.5-12.5h-315c-6.893 0-12.5 5.607-12.5 12.5v25c0 6.037 4.301 11.087 10 12.248v47.241h-83.5c-6.893 0-12.5 5.607-12.5 12.5v20c0 6.037 4.301 11.087 10 12.248v183.858c0 4.142 3.357 7.5 7.5 7.5s7.5-3.358 7.5-7.5v-183.606h71v35h-35.5c-6.893 0-12.5 5.607-12.5 12.5v49c0 6.893 5.607 12.5 12.5 12.5h35.5v30h-35.5c-6.893 0-12.5 5.607-12.5 12.5v49c0 6.893 5.607 12.5 12.5 12.5h35.5v30h-35.5c-6.893 0-12.5 5.607-12.5 12.5v49c0 6.893 5.607 12.5 12.5 12.5h35.5v38.011h-68.5c-1.379 0-2.5-1.122-2.5-2.5v-134.053c0-4.142-3.357-7.5-7.5-7.5s-7.5 3.358-7.5 7.5v134.053c0 9.649 7.851 17.5 17.5 17.5h76 305 76c9.649 0 17.5-7.851 17.5-17.5v-352.763c5.699-1.161 10-6.211 10-12.248v-20c0-6.892-5.607-12.5-12.5-12.5zm-83.5 303h33v44h-33zm0-104h33v44h-33zm0-104h33v44h-33zm-401-65v-15h81v15zm48 109v-44h33v44zm0 104v-44h33v44zm0 104v-44h33v44zm48-393.989h48.894c4.143 0 7.5-3.358 7.5-7.5s-3.357-7.5-7.5-7.5h-58.894v-20h310v20h-215.957c-4.143 0-7.5 3.358-7.5 7.5s3.357 7.5 7.5 7.5h205.957v447h-16.046v-58.801c0-6.893-5.607-12.5-12.5-12.5h-33c-6.893 0-12.5 5.607-12.5 12.5v58.801h-16.639v-58.801c0-6.893-5.607-12.5-12.5-12.5h-28.143c-4.143 0-7.5 3.358-7.5 7.5s3.357 7.5 7.5 7.5h25.643v56.301h-78.641v-56.301h17.998c4.143 0 7.5-3.358 7.5-7.5s-3.357-7.5-7.5-7.5h-20.498c-6.893 0-12.5 5.607-12.5 12.5v58.801h-15.674v-58.801c0-6.893-5.607-12.5-12.5-12.5h-33c-6.893 0-12.5 5.607-12.5 12.5v58.801h-17zm258.954 447h-28v-56.301h28zm-198.954 0h-28v-56.301h28zm313.5 0h-68.5v-38.011h35.5c6.893 0 12.5-5.607 12.5-12.5v-49c0-6.893-5.607-12.5-12.5-12.5h-35.5v-30h35.5c6.893 0 12.5-5.607 12.5-12.5v-49c0-6.893-5.607-12.5-12.5-12.5h-35.5v-30h35.5c6.893 0 12.5-5.607 12.5-12.5v-49c0-6.893-5.607-12.5-12.5-12.5h-35.5v-35h71v352.511c0 1.378-1.121 2.5-2.5 2.5z"/><path d="m214.175 410.597h83.641c6.893 0 12.5-5.607 12.5-12.5v-320.597c0-6.893-5.607-12.5-12.5-12.5h-83.641c-6.893 0-12.5 5.607-12.5 12.5v320.597c0 6.892 5.607 12.5 12.5 12.5zm34.32-147.452h-31.82v-51.048h31.82zm15-51.048h31.82v51.048h-31.82zm-15 66.048v51.048h-31.82v-51.048zm15 0h31.82v51.048h-31.82zm31.82-81.048h-31.82v-51.048h31.82zm-46.82 0h-31.82v-51.048h31.82zm-31.82 147.096h31.82v51.403h-31.82zm46.82 51.404v-51.403h31.82v51.403zm31.82-264.549h-31.82v-51.048h31.82zm-46.82-51.048v51.048h-31.82v-51.048z"/><path d="m140.5 410.597h33c6.893 0 12.5-5.607 12.5-12.5v-320.597c0-6.893-5.607-12.5-12.5-12.5h-33c-6.893 0-12.5 5.607-12.5 12.5v320.597c0 6.892 5.607 12.5 12.5 12.5zm30.5-132.452v51.048h-28v-51.048zm-28-15v-51.048h28v51.048zm28-66.048h-28v-51.048h28zm-28 198.5v-51.403h28v51.403zm28-315.597v51.048h-28v-51.048z"/><path d="m339.454 410.597h33c6.893 0 12.5-5.607 12.5-12.5v-320.597c0-6.893-5.607-12.5-12.5-12.5h-33c-6.893 0-12.5 5.607-12.5 12.5v320.597c0 6.892 5.608 12.5 12.5 12.5zm30.5-132.452v51.048h-28v-51.048zm-28-15v-51.048h28v51.048zm28-66.048h-28v-51.048h28zm-28 198.5v-51.403h28v51.403zm28-315.597v51.048h-28v-51.048z"/></g></svg>