<svg xmlns="http://www.w3.org/2000/svg" width="19.179" height="19.183" viewBox="0 0 19.179 19.183">
  <g id="Сгруппировать_130" data-name="Сгруппировать 130" transform="translate(-1428.137 -4462.952)">
    <path id="Контур_100" data-name="Контур 100" d="M1447.267,4468.592a7.012,7.012,0,0,0-.446-2.327,4.684,4.684,0,0,0-1.109-1.7,4.738,4.738,0,0,0-1.7-1.106,7.031,7.031,0,0,0-2.327-.446c-1.027-.048-1.353-.06-3.957-.06s-2.93.012-3.953.057a7.021,7.021,0,0,0-2.327.446,4.909,4.909,0,0,0-2.807,2.806,7.03,7.03,0,0,0-.446,2.327c-.049,1.027-.06,1.353-.06,3.958s.011,2.93.056,3.953a7.012,7.012,0,0,0,.446,2.327,4.915,4.915,0,0,0,2.807,2.807,7.023,7.023,0,0,0,2.327.446c1.023.045,1.349.056,3.953.056s2.931-.011,3.954-.056a7,7,0,0,0,2.327-.446,4.91,4.91,0,0,0,2.807-2.807,7.038,7.038,0,0,0,.445-2.327c.045-1.023.057-1.349.057-3.953S1447.312,4469.615,1447.267,4468.592Zm-1.728,7.832a5.257,5.257,0,0,1-.329,1.78,3.181,3.181,0,0,1-1.822,1.821,5.271,5.271,0,0,1-1.78.33c-1.011.045-1.315.056-3.874.056s-2.867-.011-3.875-.056a5.255,5.255,0,0,1-1.78-.33,3.16,3.16,0,0,1-1.817-1.817,5.281,5.281,0,0,1-.33-1.78c-.045-1.012-.056-1.316-.056-3.875s.011-2.867.056-3.875a5.265,5.265,0,0,1,.33-1.78,2.907,2.907,0,0,1,.719-1.1,2.98,2.98,0,0,1,1.1-.716,5.278,5.278,0,0,1,1.78-.33c1.012-.045,1.315-.056,3.875-.056s2.866.011,3.874.056a5.254,5.254,0,0,1,1.78.33,2.948,2.948,0,0,1,1.1.716,2.989,2.989,0,0,1,.716,1.1,5.286,5.286,0,0,1,.329,1.78c.045,1.012.057,1.316.057,3.875S1445.584,4475.412,1445.539,4476.424Z" fill="#fff"/>
    <path id="Контур_101" data-name="Контур 101" d="M1437.73,4467.618a4.927,4.927,0,1,0,4.928,4.928A4.929,4.929,0,0,0,1437.73,4467.618Zm0,8.124a3.2,3.2,0,1,1,3.2-3.2A3.2,3.2,0,0,1,1437.73,4475.742Z" fill="#fff"/>
    <path id="Контур_102" data-name="Контур 102" d="M1444,4467.423a1.151,1.151,0,1,1-1.15-1.15A1.15,1.15,0,0,1,1444,4467.423Z" fill="#fff"/>
  </g>
</svg>
