<svg xmlns="http://www.w3.org/2000/svg" xmlns:xlink="http://www.w3.org/1999/xlink" width="124.179" height="58.259" viewBox="0 0 124.179 58.259">
  <defs>
    <linearGradient id="linear-gradient" x1="1.611" y1="1.29" x2="0.053" y2="0.182" gradientUnits="objectBoundingBox">
      <stop offset="0" stop-color="#c10010"/>
      <stop offset="0.1" stop-color="#a00a24"/>
      <stop offset="0.293" stop-color="#671b49"/>
      <stop offset="0.472" stop-color="#3a2966"/>
      <stop offset="0.631" stop-color="#1a337a"/>
      <stop offset="0.764" stop-color="#073987"/>
      <stop offset="0.854" stop-color="#003c8c"/>
    </linearGradient>
    <linearGradient id="linear-gradient-2" x1="0.5" y1="1.072" x2="0.5" y2="0.139" gradientUnits="objectBoundingBox">
      <stop offset="0" stop-color="#c10010"/>
      <stop offset="0.117" stop-color="#a00a24"/>
      <stop offset="0.343" stop-color="#671b49"/>
      <stop offset="0.553" stop-color="#3a2966"/>
      <stop offset="0.739" stop-color="#1a337a"/>
      <stop offset="0.894" stop-color="#073987"/>
      <stop offset="1" stop-color="#003c8c"/>
    </linearGradient>
    <linearGradient id="linear-gradient-3" x1="-0.123" y1="1.078" x2="0.985" y2="0.05" gradientUnits="objectBoundingBox">
      <stop offset="0" stop-color="#c10010"/>
      <stop offset="0.089" stop-color="#a30923"/>
      <stop offset="0.254" stop-color="#711842"/>
      <stop offset="0.417" stop-color="#48255d"/>
      <stop offset="0.575" stop-color="#292f71"/>
      <stop offset="0.728" stop-color="#123680"/>
      <stop offset="0.873" stop-color="#043a88"/>
      <stop offset="1" stop-color="#003c8c"/>
    </linearGradient>
  </defs>
  <g id="Сгруппировать_31" data-name="Сгруппировать 31" transform="translate(-243.313 -10.232)">
    <path id="Контур_8" data-name="Контур 8" d="M292.674,30.36,267.757,17.283v4.962l24.917,13.077Z" fill-rule="evenodd" fill="url(#linear-gradient)"/>
    <path id="Контур_9" data-name="Контур 9" d="M268.124,23.57l-24.811,12.8V68.491c9.511-5.419,22.461-5.746,22.461-5.746V61.178s-7.313-1.306-7.313-6.007,9.4-12.013,9.4-12.013,9.4,7.138,9.4,11.752c0,5.4-7.051,6.268-7.051,6.268a9.424,9.424,0,0,1,0,1.567c14.364.871,22.46,5.485,22.46,5.485v-31.6Zm20.633,39.959a35.206,35.206,0,0,0-9.141-2.351,7.205,7.205,0,0,0,3.395-6.268c0-5.876-13.842-13.189-13.842-14.1v-4.44h-2.35v4.44c0,.784-14.1,8.031-14.1,14.1a6.515,6.515,0,0,0,3.657,6.268s-6.791,1.176-9.664,2.351V39.5L267.6,28.532,288.757,39.5Z" fill-rule="evenodd" fill="url(#linear-gradient-2)"/>
    <path id="Контур_10" data-name="Контур 10" d="M243.313,23.309,268.23,10.232v4.962L243.313,28.271Z" fill-rule="evenodd" fill="url(#linear-gradient-3)"/>
    <g id="Сгруппировать_29" data-name="Сгруппировать 29">
      <path id="Контур_11" data-name="Контур 11" d="M303.676,45.95v8.505h-2.938V36.982h2.938v7.68l3.2-7.68h2.886l-3.4,7.86,3.479,9.613h-3.092Z" fill="#211f1d"/>
      <path id="Контур_12" data-name="Контур 12" d="M311.1,54.455V51.749h.7c.928,0,1.34-.464,1.6-1.34h-.825L309.81,36.982h3.068l1.572,9.432,1.752-9.432h2.809L316.2,50.641c-.515,2.448-1.443,3.814-4.175,3.814Z" fill="#211f1d"/>
      <path id="Контур_13" data-name="Контур 13" d="M319.811,36.982h4.355c2.964,0,4.047,1.469,4.047,3.917v3.685c0,2.449-1.083,3.944-4.047,3.944h-1.417v5.927h-2.938Zm2.938,2.4V46.26h1.082a1.262,1.262,0,0,0,1.443-1.444V40.8c0-.954-.438-1.418-1.443-1.418Z" fill="#211f1d"/>
      <path id="Контур_14" data-name="Контур 14" d="M329.347,49.945V41.492c0-2.732,1.289-4.716,4.382-4.716,3.247,0,4.149,1.8,4.149,4.381v2.062H335.2V40.925c0-1.083-.361-1.7-1.418-1.7s-1.495.747-1.495,1.8v9.381c0,1.057.438,1.8,1.495,1.8s1.418-.67,1.418-1.7V47.291h2.68v3.015c0,2.5-1.031,4.355-4.149,4.355C330.636,54.661,329.347,52.651,329.347,49.945Z" fill="#211f1d"/>
      <path id="Контур_15" data-name="Контур 15" d="M342.028,45.95v8.505H339.09V36.982h2.938v7.68l3.2-7.68h2.886l-3.4,7.86,3.479,9.613H345.1Z" fill="#211f1d"/>
      <path id="Контур_16" data-name="Контур 16" d="M348.446,54.455l3.3-17.473h3.35l3.325,17.473H355.4l-.542-3.2h-3.118l-.516,3.2Zm3.685-5.541h2.346l-1.16-7.01h-.026Z" fill="#211f1d"/>
      <path id="Контур_17" data-name="Контур 17" d="M361.694,54.455H358.6l2.886-7.422c-1.675-.412-2.319-1.5-2.319-3.376V40.9c0-2.448,1.082-3.917,4.046-3.917h4.278V54.455h-2.938V46.878Zm2.86-9.123V39.378h-.979c-1.005,0-1.443.464-1.443,1.418v3.093a1.272,1.272,0,0,0,1.443,1.443Z" fill="#211f1d"/>
    </g>
    <g id="Сгруппировать_30" data-name="Сгруппировать 30">
      <path id="Контур_18" data-name="Контур 18" d="M303.222,62.545H302v3.316h-1.264v-7.52H302v3.183h1.22V58.341H304.5v7.52h-1.276Z" fill="#211f1d"/>
      <path id="Контур_19" data-name="Контур 19" d="M305.263,58.341h3.017v1.032h-1.753v2.151h1.254v1.021h-1.254V64.83h1.753v1.031h-3.017Z" fill="#211f1d"/>
      <path id="Контур_20" data-name="Контур 20" d="M308.734,64.83h.1c.5,0,.643-.577.688-1.631.044-1.109.1-4.858.11-4.858h3.339V64.83h.444v1.919h-1.109v-.888h-2.463v.888h-1.109Zm2.962,0V59.373h-.921c-.022,1.22-.067,3.183-.1,3.837a3.718,3.718,0,0,1-.355,1.62Z" fill="#211f1d"/>
      <path id="Контур_21" data-name="Контур 21" d="M313.913,58.341h1.831c1.264,0,1.686.588,1.686,1.653v.765a1.1,1.1,0,0,1-.755,1.2,1.141,1.141,0,0,1,.943,1.253v1c0,1.065-.477,1.652-1.741,1.652h-1.964Zm1.265,3.172h.444a.532.532,0,0,0,.6-.61v-.92a.531.531,0,0,0-.609-.61h-.433Zm0,.965V64.83h.555a.544.544,0,0,0,.621-.61V63.088c0-.4-.189-.61-.633-.61Z" fill="#211f1d"/>
      <path id="Контур_22" data-name="Контур 22" d="M318.3,58.341h1.165v4.681l1.375-4.681h1.265v7.52h-1.165v-4.68l-1.375,4.68H318.3Z" fill="#211f1d"/>
      <path id="Контур_23" data-name="Контур 23" d="M324.117,61.78l-1.4-3.439h1.243l1.286,3.317V58.341h1.243v3.317l1.286-3.317H329L327.622,61.7l1.509,4.159h-1.309l-1.331-3.693v3.693h-1.243V62.168l-1.331,3.693h-1.275Z" fill="#211f1d"/>
      <path id="Контур_24" data-name="Контур 24" d="M329.662,58.341h1.165v4.681l1.375-4.681h1.264v7.52H332.3v-4.68l-1.375,4.68h-1.265Z" fill="#211f1d"/>
      <path id="Контур_25" data-name="Контур 25" d="M337.725,60.981h-.033l-.854,4.88h-.588l-.943-4.88h-.022v4.88h-1.043v-7.52h1.476l.821,4.237h.01l.733-4.237h1.6v7.52h-1.154Z" fill="#211f1d"/>
      <path id="Контур_26" data-name="Контур 26" d="M339.655,63.92V60.282a1.916,1.916,0,1,1,3.826,0V63.92a1.916,1.916,0,1,1-3.826,0Zm2.562.2V60.083c0-.455-.2-.777-.654-.777s-.644.322-.644.777V64.12c0,.455.2.776.644.776S342.217,64.575,342.217,64.12Z" fill="#211f1d"/>
      <path id="Контур_27" data-name="Контур 27" d="M344.257,63.92V60.282a1.774,1.774,0,0,1,1.886-2.03c1.4,0,1.786.777,1.786,1.886v.887h-1.154v-.987c0-.466-.155-.732-.61-.732s-.643.322-.643.777V64.12c0,.455.188.776.643.776s.61-.288.61-.732V62.778h1.154v1.3c0,1.075-.444,1.874-1.786,1.874A1.779,1.779,0,0,1,344.257,63.92Z" fill="#211f1d"/>
      <path id="Контур_28" data-name="Контур 28" d="M348.416,58.341h3.361v1.032h-1.043v6.488h-1.275V59.373h-1.043Z" fill="#211f1d"/>
      <path id="Контур_29" data-name="Контур 29" d="M352.409,58.341h1.264v2.817h.61c1.276,0,1.742.644,1.742,1.7v1.32c0,1.054-.466,1.686-1.742,1.686h-1.874Zm1.73,6.489c.433,0,.621-.2.621-.61V62.756a.543.543,0,0,0-.621-.622h-.466v2.7Z" fill="#211f1d"/>
      <path id="Контур_30" data-name="Контур 30" d="M359.019,61.136v4.725h-1.065v-7.52H359.2l1.365,4.315V58.341h1.053v7.52h-1.109Zm2.928-1.042v-.389a1.409,1.409,0,1,1,2.817,0v.389a1.409,1.409,0,1,1-2.817,0Zm.111,1.808h2.6v.709h-2.6Zm1.73-1.675v-.655c0-.332-.11-.521-.432-.521s-.433.189-.433.521v.655c0,.332.111.521.433.521S363.788,60.559,363.788,60.227Z" fill="#211f1d"/>
      <path id="Контур_31" data-name="Контур 31" d="M367.492,58.341v7.52h-1.264V60.1h-.011l-.888.92h-.011v-1.32l1.165-1.364Z" fill="#211f1d"/>
    </g>
  </g>
</svg>
