<svg xmlns="http://www.w3.org/2000/svg" width="41.42" height="41.501" viewBox="0 0 41.42 41.501">
  <g id="Сгруппировать_2453" data-name="Сгруппировать 2453" transform="translate(-5411.432 -3695.86)">
    <g id="Сгруппировать_2440" data-name="Сгруппировать 2440">
      <g id="Сгруппировать_2439" data-name="Сгруппировать 2439">
        <path id="Контур_17501" data-name="Контур 17501" d="M5448.966,3709.934a6.842,6.842,0,0,0-6.575-8.721,6.883,6.883,0,0,0-1.5.166,7.766,7.766,0,1,0-13.99,6.41.809.809,0,1,0,1.365-.869,6.147,6.147,0,1,1,11.24-4.383.809.809,0,0,0,1.077.617,5.222,5.222,0,0,1,6.646,6.871.809.809,0,0,0,.413,1.042,6.168,6.168,0,0,1,3.6,5.594,6.678,6.678,0,0,1-.534,2.512,6.355,6.355,0,0,1-.749,1.247.809.809,0,0,0,1.264,1.011,7.946,7.946,0,0,0,.969-1.615,8.233,8.233,0,0,0,.668-3.155A7.789,7.789,0,0,0,5448.966,3709.934Z" fill="#fff"/>
      </g>
    </g>
    <g id="Сгруппировать_2442" data-name="Сгруппировать 2442">
      <g id="Сгруппировать_2441" data-name="Сгруппировать 2441">
        <path id="Контур_17502" data-name="Контур 17502" d="M5448.248,3728.14v-10.653H5449a.809.809,0,0,0,0-1.618h-4.041a7.51,7.51,0,0,0-5.343,2.213l-2.116,2.117v-7.339l2.332-2.331a.81.81,0,0,0-1.145-1.145l-1.187,1.188v-4.6a.809.809,0,0,0-1.618,0v16.18a.809.809,0,0,0,1.381.572l3.5-3.5a5.966,5.966,0,0,1,.806-.674v9.593a2.427,2.427,0,0,0,.174,4.847h6.471a2.427,2.427,0,0,0,.041-4.853Zm-5.068-10.383a5.95,5.95,0,0,1,1.775-.27h1.675v10.651h-3.45Zm5.027,13.618h-6.472a.809.809,0,0,1,0-1.618h6.472a.809.809,0,1,1,0,1.618Z" fill="#fff"/>
      </g>
    </g>
    <g id="Сгруппировать_2444" data-name="Сгруппировать 2444">
      <g id="Сгруппировать_2443" data-name="Сгруппировать 2443">
        <path id="Контур_17503" data-name="Контур 17503" d="M5413.946,3714.1a.812.812,0,0,0-1.113.272l-.009.015a.8.8,0,0,0,.271,1.109.8.8,0,0,0,.418.118.813.813,0,0,0,.695-.39l.009-.014A.807.807,0,0,0,5413.946,3714.1Z" fill="#fff"/>
      </g>
    </g>
    <g id="Сгруппировать_2446" data-name="Сгруппировать 2446">
      <g id="Сгруппировать_2445" data-name="Сгруппировать 2445">
        <path id="Контур_17504" data-name="Контур 17504" d="M5446.791,3735.98a.809.809,0,1,0,.237.572A.819.819,0,0,0,5446.791,3735.98Z" fill="#fff"/>
      </g>
    </g>
    <g id="Сгруппировать_2448" data-name="Сгруппировать 2448">
      <g id="Сгруппировать_2447" data-name="Сгруппировать 2447">
        <path id="Контур_17505" data-name="Контур 17505" d="M5442.484,3735.743H5437.5v-9.16l2.774-2.775a.809.809,0,0,0-1.144-1.144l-3.011,3.012a.806.806,0,0,0-.237.572v9.495h-1.187V3720.13a.81.81,0,0,0-.357-.672l-2.4-1.613a6.44,6.44,0,0,0-.136-.952h2.083a.808.808,0,0,0,.809-.808v-10.113a.809.809,0,1,0-1.618,0v9.3h-1.866a6.494,6.494,0,0,0-5.134-3.444,4.486,4.486,0,1,0-8.71-.57,6.706,6.706,0,0,0-1.809.609.809.809,0,1,0,.729,1.445,5.1,5.1,0,0,1,2.15-.546.81.81,0,0,0,.718-1.128,2.84,2.84,0,0,1-.233-1.132,2.867,2.867,0,0,1,5.735,0,2.842,2.842,0,0,1-.541,1.674.809.809,0,0,0,.755,1.276,5.065,5.065,0,0,1,.6-.038,4.871,4.871,0,0,1,4.866,4.865v0a4.827,4.827,0,0,1-1.508,3.518.808.808,0,0,0-.106,1.047,4.04,4.04,0,0,1-6.609,4.647v-1.535l2.044-2.045,1.951,1.066a.809.809,0,0,0,.776-1.42l-1.534-.838.787-.788a.809.809,0,1,0-1.144-1.144l-1.541,1.541,0,0-1.337,1.337v-7.027a.809.809,0,1,0-1.618,0v3.089l-2.572-2.572a.809.809,0,0,0-1.144,1.144l3.629,3.629a.739.739,0,0,0,.087.074v3.615h0v1.508l-.015.024a3.963,3.963,0,1,1-6.038-4.938.809.809,0,0,0,.109-1.116,5.1,5.1,0,0,1-1.1-3.187.809.809,0,1,0-1.618,0,6.7,6.7,0,0,0,1.031,3.592,5.579,5.579,0,0,0,7.636,8.084v6.145h-3.883a.809.809,0,0,0,0,1.618h25.874a.809.809,0,0,0,0-1.618Zm-9.411,0h-10.962v-5.983a5.658,5.658,0,0,0,8.286-7.261,6.4,6.4,0,0,0,1.4-2.8l1.275.857Z" fill="#fff"/>
      </g>
    </g>
    <g id="Сгруппировать_2450" data-name="Сгруппировать 2450">
      <g id="Сгруппировать_2449" data-name="Сгруппировать 2449">
        <path id="Контур_17506" data-name="Контур 17506" d="M5433.451,3698.88a4.751,4.751,0,0,0-4.746,4.746.809.809,0,0,0,1.618,0,3.131,3.131,0,0,1,3.128-3.128.809.809,0,0,0,0-1.618Z" fill="#fff"/>
      </g>
    </g>
    <g id="Сгруппировать_2452" data-name="Сгруппировать 2452">
      <g id="Сгруппировать_2451" data-name="Сгруппировать 2451">
        <path id="Контур_17507" data-name="Контур 17507" d="M5442.39,3704.489a.809.809,0,1,0,0,1.618,1.946,1.946,0,0,1,1.945,1.944.809.809,0,1,0,1.618,0A3.566,3.566,0,0,0,5442.39,3704.489Z" fill="#fff"/>
      </g>
    </g>
  </g>
</svg>
