<svg xmlns="http://www.w3.org/2000/svg" width="48.821" height="48.821" viewBox="0 0 48.821 48.821">
  <g id="Сгруппировать_2456" data-name="Сгруппировать 2456" transform="translate(-5920.143 -3692.2)">
    <g id="Сгруппировать_2455" data-name="Сгруппировать 2455">
      <g id="Сгруппировать_2454" data-name="Сгруппировать 2454">
        <path id="Контур_17508" data-name="Контур 17508" d="M5951.063,3723.934a.813.813,0,1,0-1.627,0v1.627a.813.813,0,1,0,1.627,0Z" fill="#fff"/>
        <path id="Контур_17509" data-name="Контур 17509" d="M5950.249,3732.884a.814.814,0,0,0-.813.814v3.255a.813.813,0,0,0,1.627,0V3733.7A.814.814,0,0,0,5950.249,3732.884Z" fill="#fff"/>
        <path id="Контур_17510" data-name="Контур 17510" d="M5954.318,3714.169a.813.813,0,0,0-1.627,0v1.628a.813.813,0,0,0,1.627,0Z" fill="#fff"/>
        <path id="Контур_17511" data-name="Контур 17511" d="M5951.063,3719.051a.813.813,0,0,0-1.627,0v1.628a.813.813,0,1,0,1.627,0Z" fill="#fff"/>
        <path id="Контур_17512" data-name="Контур 17512" d="M5951.063,3728.816a.813.813,0,1,0-1.627,0v1.627a.813.813,0,1,0,1.627,0v-1.627Z" fill="#fff"/>
        <path id="Контур_17513" data-name="Контур 17513" d="M5954.318,3719.051a.813.813,0,0,0-1.627,0v1.628a.813.813,0,1,0,1.627,0Z" fill="#fff"/>
        <path id="Контур_17514" data-name="Контур 17514" d="M5947.808,3714.169a.813.813,0,0,0-1.627,0v1.628a.813.813,0,0,0,1.627,0Z" fill="#fff"/>
        <path id="Контур_17515" data-name="Контур 17515" d="M5951.063,3714.169a.813.813,0,0,0-1.627,0v1.628a.813.813,0,0,0,1.627,0Z" fill="#fff"/>
        <path id="Контур_17516" data-name="Контур 17516" d="M5954.318,3706.032v-1.627a.813.813,0,1,0-1.627,0v1.627a.813.813,0,1,0,1.627,0Z" fill="#fff"/>
        <path id="Контур_17517" data-name="Контур 17517" d="M5947.808,3719.051a.813.813,0,0,0-1.627,0v1.628a.813.813,0,1,0,1.627,0Z" fill="#fff"/>
        <path id="Контур_17518" data-name="Контур 17518" d="M5957.573,3704.405a.814.814,0,0,0-1.628,0v1.627a.814.814,0,0,0,1.628,0Z" fill="#fff"/>
        <path id="Контур_17519" data-name="Контур 17519" d="M5947,3723.12a.814.814,0,0,0-.814.814v1.627a.813.813,0,1,0,1.627,0v-1.627A.813.813,0,0,0,5947,3723.12Z" fill="#fff"/>
        <path id="Контур_17520" data-name="Контур 17520" d="M5960.827,3728.816a.813.813,0,1,0-1.627,0v1.627a.813.813,0,1,0,1.627,0v-1.627Z" fill="#fff"/>
        <path id="Контур_17521" data-name="Контур 17521" d="M5960.014,3732.884a.815.815,0,0,0-.814.814v3.255a.813.813,0,0,0,1.627,0V3733.7A.814.814,0,0,0,5960.014,3732.884Z" fill="#fff"/>
        <path id="Контур_17522" data-name="Контур 17522" d="M5963.268,3723.12a.813.813,0,0,0-.813.814v1.627a.813.813,0,1,0,1.627,0v-1.627A.813.813,0,0,0,5963.268,3723.12Z" fill="#fff"/>
        <path id="Контур_17523" data-name="Контур 17523" d="M5950.249,3706.846a.813.813,0,0,0,.814-.814V3702.6l8.137-2.035v13.6a.816.816,0,0,0,.528.763l5.982,2.242v8.387a.813.813,0,1,0,1.627,0v-8.951a.816.816,0,0,0-.528-.762l-5.982-2.243V3697.9a.813.813,0,1,0-1.627,0v.991l-9.148,2.288a.813.813,0,0,0-.616.789v4.068A.813.813,0,0,0,5950.249,3706.846Z" fill="#fff"/>
        <path id="Контур_17524" data-name="Контур 17524" d="M5964.082,3719.051a.813.813,0,0,0-1.627,0v1.628a.813.813,0,1,0,1.627,0Z" fill="#fff"/>
        <path id="Контур_17525" data-name="Контур 17525" d="M5960.827,3719.051a.813.813,0,0,0-1.627,0v1.628a.813.813,0,1,0,1.627,0Z" fill="#fff"/>
        <path id="Контур_17526" data-name="Контур 17526" d="M5954.318,3728.816a.813.813,0,1,0-1.627,0v1.627a.813.813,0,1,0,1.627,0Z" fill="#fff"/>
        <path id="Контур_17527" data-name="Контур 17527" d="M5960.827,3723.934a.813.813,0,1,0-1.627,0v1.627a.813.813,0,1,0,1.627,0Z" fill="#fff"/>
        <path id="Контур_17528" data-name="Контур 17528" d="M5953.5,3732.884a.814.814,0,0,0-.813.814v3.255a.813.813,0,0,0,1.627,0V3733.7A.815.815,0,0,0,5953.5,3732.884Z" fill="#fff"/>
        <path id="Контур_17529" data-name="Контур 17529" d="M5954.318,3723.934a.813.813,0,1,0-1.627,0v1.627a.813.813,0,1,0,1.627,0Z" fill="#fff"/>
        <path id="Контур_17530" data-name="Контур 17530" d="M5956.759,3737.766a.814.814,0,0,0,.814-.813v-26.038a.816.816,0,0,0-.616-.79l-13.019-3.254a.814.814,0,0,0-1.012.789v17.9a.814.814,0,0,0,1.628,0V3708.7l11.391,2.848v25.4A.814.814,0,0,0,5956.759,3737.766Z" fill="#fff"/>
        <path id="Контур_17531" data-name="Контур 17531" d="M5938.044,3709.287a.813.813,0,0,0-1.627,0v1.628a.813.813,0,0,0,1.627,0Z" fill="#fff"/>
        <path id="Контур_17532" data-name="Контур 17532" d="M5938.044,3704.405a.813.813,0,1,0-1.627,0v1.627a.813.813,0,1,0,1.627,0Z" fill="#fff"/>
        <path id="Контур_17533" data-name="Контур 17533" d="M5931.535,3728.816a.814.814,0,0,0-1.628,0v1.627a.814.814,0,0,0,1.628,0v-1.627Z" fill="#fff"/>
        <path id="Контур_17534" data-name="Контур 17534" d="M5924.211,3721.493a.814.814,0,0,0,.814-.814v-4.069h8.137v20.343a.813.813,0,0,0,1.627,0V3715.8a.814.814,0,0,0-.813-.814h-9.765a.814.814,0,0,0-.813.814v4.882A.814.814,0,0,0,5924.211,3721.493Z" fill="#fff"/>
        <path id="Контур_17535" data-name="Контур 17535" d="M5933.162,3709.287v1.628a.813.813,0,0,0,1.627,0v-1.628a.813.813,0,0,0-1.627,0Z" fill="#fff"/>
        <path id="Контур_17536" data-name="Контур 17536" d="M5938.044,3699.523a.813.813,0,1,0-1.627,0v1.627a.813.813,0,1,0,1.627,0Z" fill="#fff"/>
        <path id="Контур_17537" data-name="Контур 17537" d="M5930.721,3732.884a.815.815,0,0,0-.814.814v3.255a.814.814,0,0,0,1.628,0V3733.7A.815.815,0,0,0,5930.721,3732.884Z" fill="#fff"/>
        <path id="Контур_17538" data-name="Контур 17538" d="M5968.151,3739.394h-1.628v-5a3.254,3.254,0,1,0-1.627,0v5h-20.342v-3.337a4.069,4.069,0,1,0-1.628,0v3.337h-17.9v-8.219a4.068,4.068,0,1,0-1.627,0v8.219h-2.441a.813.813,0,1,0,0,1.627h47.194a.813.813,0,0,0,0-1.627Zm-46.381-12.206a2.441,2.441,0,1,1,2.441,2.441A2.445,2.445,0,0,1,5921.77,3727.188Zm19.529,4.882a2.441,2.441,0,1,1,2.441,2.442A2.445,2.445,0,0,1,5941.3,3732.07Zm22.783-.813a1.627,1.627,0,1,1,1.628,1.627A1.629,1.629,0,0,1,5964.082,3731.257Z" fill="#fff"/>
        <path id="Контур_17539" data-name="Контур 17539" d="M5926.652,3733.7v3.255a.814.814,0,0,0,1.628,0V3733.7a.814.814,0,0,0-1.628,0Z" fill="#fff"/>
        <path id="Контур_17540" data-name="Контур 17540" d="M5931.535,3719.051a.814.814,0,0,0-1.628,0v1.628a.814.814,0,0,0,1.628,0Z" fill="#fff"/>
        <path id="Контур_17541" data-name="Контур 17541" d="M5931.535,3723.934a.814.814,0,0,0-1.628,0v1.627a.814.814,0,0,0,1.628,0Z" fill="#fff"/>
        <path id="Контур_17542" data-name="Контур 17542" d="M5926.652,3719.051v1.628a.814.814,0,0,0,1.628,0v-1.628a.814.814,0,0,0-1.628,0Z" fill="#fff"/>
        <path id="Контур_17543" data-name="Контур 17543" d="M5938.044,3723.934a.813.813,0,1,0-1.627,0v1.627a.813.813,0,1,0,1.627,0Z" fill="#fff"/>
        <path id="Контур_17544" data-name="Контур 17544" d="M5941.3,3714.169a.813.813,0,0,0-1.627,0v1.628a.813.813,0,0,0,1.627,0Z" fill="#fff"/>
        <path id="Контур_17545" data-name="Контур 17545" d="M5941.3,3709.287a.813.813,0,0,0-1.627,0v1.628a.813.813,0,0,0,1.627,0Z" fill="#fff"/>
        <path id="Контур_17546" data-name="Контур 17546" d="M5941.3,3719.051a.813.813,0,0,0-1.627,0v1.628a.813.813,0,1,0,1.627,0Z" fill="#fff"/>
        <path id="Контур_17547" data-name="Контур 17547" d="M5940.485,3723.12a.814.814,0,0,0-.814.814v1.627a.814.814,0,0,0,1.628,0v-1.627A.814.814,0,0,0,5940.485,3723.12Z" fill="#fff"/>
        <path id="Контур_17548" data-name="Контур 17548" d="M5941.3,3704.405a.813.813,0,1,0-1.627,0v1.627a.813.813,0,1,0,1.627,0Z" fill="#fff"/>
        <path id="Контур_17549" data-name="Контур 17549" d="M5938.044,3728.816a.813.813,0,1,0-1.627,0v1.627a.813.813,0,1,0,1.627,0Z" fill="#fff"/>
        <path id="Контур_17550" data-name="Контур 17550" d="M5930.721,3713.356a.815.815,0,0,0,.814-.814v-6.007l2.8-1.4a.814.814,0,0,0,.45-.728v-6.82l4.069-2.034,4.068,2.034v6.82a.814.814,0,0,0,1.628,0v-7.323a.816.816,0,0,0-.45-.728l-4.433-2.216v-1.125a.813.813,0,0,0-1.627,0v1.125l-4.432,2.216a.813.813,0,0,0-.45.728v6.82l-2.805,1.4a.814.814,0,0,0-.45.728v6.51A.815.815,0,0,0,5930.721,3713.356Z" fill="#fff"/>
        <path id="Контур_17551" data-name="Контур 17551" d="M5938.044,3719.051a.813.813,0,0,0-1.627,0v1.628a.813.813,0,1,0,1.627,0Z" fill="#fff"/>
        <path id="Контур_17552" data-name="Контур 17552" d="M5937.23,3732.884a.814.814,0,0,0-.813.814v3.255a.813.813,0,0,0,1.627,0V3733.7A.814.814,0,0,0,5937.23,3732.884Z" fill="#fff"/>
        <path id="Контур_17553" data-name="Контур 17553" d="M5941.3,3699.523a.813.813,0,1,0-1.627,0v1.627a.813.813,0,1,0,1.627,0Z" fill="#fff"/>
        <path id="Контур_17554" data-name="Контур 17554" d="M5938.044,3714.169a.813.813,0,0,0-1.627,0v1.628a.813.813,0,0,0,1.627,0Z" fill="#fff"/>
      </g>
    </g>
  </g>
</svg>
