<svg xmlns="http://www.w3.org/2000/svg" width="52.774" height="53.167" viewBox="0 0 52.774 53.167">
  <g id="Сгруппировать_2458" data-name="Сгруппировать 2458" transform="translate(-5665.546 -3690.027)">
    <g id="Сгруппировать_2457" data-name="Сгруппировать 2457">
      <path id="Контур_17555" data-name="Контур 17555" d="M5683.5,3718.595a.778.778,0,0,0,0-1.557h-3.516V3714.7a.779.779,0,0,0-1.558,0v2.336h-2.737v-9a1.006,1.006,0,0,0-1.013-1.021h-7.986a1.2,1.2,0,0,0-1.147,1.267v33.637a1.2,1.2,0,0,0,1.147,1.268h16.441a1.213,1.213,0,0,0,1.147-1.268v-8.075a.778.778,0,1,0-1.557,0v7.785H5667.1v-33.057h7.032v1.96H5671.5a.779.779,0,0,0,0,1.558h2.631v2.828h-2.361a.778.778,0,0,0,0,1.557h2.361v6.882a.779.779,0,0,0,.779.779h7.81v6.087a.778.778,0,1,0,1.557,0v-6.623a1.037,1.037,0,0,0-1.046-1.022h-3.248v-3.99Zm-5.074,3.99h-2.737v-3.99h2.737v3.99Z" fill="#fff"/>
      <path id="Контур_17556" data-name="Контур 17556" d="M5710.061,3726.048v-10.892h0v-10.892h0v-4.668h1.516a1.284,1.284,0,0,0,1.284-1.282v-.072h4.036a1.514,1.514,0,0,0,.908-.3.883.883,0,0,0,.126-.105l.024-.028a1.217,1.217,0,0,0,.365-.858v-4.282a1.362,1.362,0,0,0-1.423-1.289h-4.036v-.071a1.284,1.284,0,0,0-1.283-1.283h-9.905a1.284,1.284,0,0,0-1.284,1.283v.071h-21.935a1.364,1.364,0,0,0-1.426,1.289v4.282a1.364,1.364,0,0,0,1.426,1.288h3.706v2.685l-2.882,3.062h-.711a1.236,1.236,0,0,0-1.236,1.235v3.642a1.238,1.238,0,0,0,1.236,1.238h8.74a1.239,1.239,0,0,0,1.239-1.238v-3.642a1.238,1.238,0,0,0-1.239-1.235h-.709l-2.881-3.062v-2.685h16.672v.072a1.284,1.284,0,0,0,1.284,1.282h1.517v31.122h-2.441a1.959,1.959,0,0,0-1.958,1.956v5.079h-.854a2.729,2.729,0,0,0-2.728,2.723v1.42a1.3,1.3,0,0,0,1.305,1.3h20.469a1.3,1.3,0,0,0,1.3-1.3v-1.42a2.727,2.727,0,0,0-2.724-2.723h-.854v-5.079a1.961,1.961,0,0,0-1.961-1.956h-2.684v-4.667Zm6.7-33.109v2.679l-2.759-2.679Zm-3.9,1.063,2.762,2.681h-2.762Zm-34.276,2.68v-3.743h.432l3.855,3.743Zm8.4,8.863v3h-8.1v-3Zm-2.529-1.558h-3.043l1.521-1.617Zm-3.207-11.048h7.078l-3.539,3.437Zm8.35,3.744h-2.891l3.538-3.436,3.539,3.437Zm2.567-3.744h7.078l-3.539,3.437Zm6.747,3.744h-1.288l2.76-2.681v2.681Zm13.828,35.591a.4.4,0,0,1,.4.4v5.079h-4.534a.779.779,0,0,0,0,1.558h6.946a1.168,1.168,0,0,1,1.167,1.165v1.162h-19.96v-1.162a1.169,1.169,0,0,1,1.17-1.165h6.9a.779.779,0,1,0,0-1.558h-4.493v-5.079a.4.4,0,0,1,.4-.4h12Zm-4.551-28.012-3.447,3.533v-7.066Zm-2.378-4.668h2.687v2.755Zm2.687,6.582v7.066l-3.447-3.533Zm-.309,8.979-3.447,3.533v-7.066Zm.309,1.914v7.066l-3.446-3.533Zm-.309,8.98-3.447,3.533v-7.066Zm.309,1.913v2.754h-2.687Zm.779-29.925h-7.335v-6.453h9.356v6.453Z" fill="#fff"/>
      <path id="Контур_17557" data-name="Контур 17557" d="M5680.857,3727.634a1.164,1.164,0,0,0-1.162-1.164h-9.563a1.166,1.166,0,0,0-1.165,1.164v3.177a1.166,1.166,0,0,0,1.165,1.164h9.563a1.164,1.164,0,0,0,1.162-1.164Zm-6.722,2.783h-3.61v-2.389h3.61v2.389Zm5.165,0h-3.608v-2.389h3.607v2.389Z" fill="#fff"/>
      <path id="Контур_17558" data-name="Контур 17558" d="M5679.695,3734.3h-9.563a1.166,1.166,0,0,0-1.165,1.164v3.177a1.166,1.166,0,0,0,1.165,1.164h9.563a1.164,1.164,0,0,0,1.162-1.164v-3.177a1.164,1.164,0,0,0-1.162-1.164Zm-5.56,3.947h-3.61v-2.389h3.61v2.389Zm5.165,0h-3.608v-2.389h3.607v2.389Z" fill="#fff"/>
    </g>
  </g>
</svg>
