<svg xmlns="http://www.w3.org/2000/svg" width="41.184" height="41.185" viewBox="0 0 41.184 41.185">
  <g id="Сгруппировать_281" data-name="Сгруппировать 281" transform="translate(-3117.545 -5198.52)">
    <path id="Контур_216" data-name="Контур 216" d="M3144.984,5218.591l-5.795,5.8v-14.394a1.052,1.052,0,1,0-2.1,0v14.394l-5.795-5.8a1.047,1.047,0,0,0-.744-.31h0a1.053,1.053,0,0,0-.743,1.8l7.369,7.369a1.018,1.018,0,0,0,.926.268l.043-.008.044.008a1.029,1.029,0,0,0,.924-.269l7.369-7.368a1.053,1.053,0,0,0,0-1.488A1.062,1.062,0,0,0,3144.984,5218.591Z" fill="#ccc"/>
    <path id="Контур_217" data-name="Контур 217" d="M3138.137,5198.52a20.593,20.593,0,1,0,20.592,20.592A20.615,20.615,0,0,0,3138.137,5198.52Zm0,39.08a18.487,18.487,0,1,1,18.487-18.488A18.508,18.508,0,0,1,3138.137,5237.6Z" fill="#ccc"/>
  </g>
</svg>
