<svg xmlns="http://www.w3.org/2000/svg" width="25.801" height="23.544" viewBox="0 0 25.801 23.544">
  <g id="Сгруппировать_112" data-name="Сгруппировать 112" transform="translate(-527.623 -3720.65)">
    <path id="Контур_92" data-name="Контур 92" d="M535.929,3733.485l-.162-.164-7.84-7.84c-.047-.047-.1-.092-.14-.141a.614.614,0,0,1,0-.83c.035-.04.074-.076.111-.114q1.635-1.634,3.268-3.268c.1-.1.215-.192.311-.3a.509.509,0,0,1,.388-.172l.2,0h17.117c.027,0,.053,0,.08,0a.73.73,0,0,1,.6.249q1.672,1.68,3.349,3.355c.024.024.047.047.069.072a.6.6,0,0,1,.012.782,2.017,2.017,0,0,1-.164.172l-7.825,7.827c-.056.055-.111.113-.169.172.022.079.087.119.134.17a6.382,6.382,0,0,1,1.277,1.99,6.175,6.175,0,0,1,.428,1.744,6.393,6.393,0,0,1-4.878,6.842,6.394,6.394,0,0,1-7.645-4.61,6.222,6.222,0,0,1-.189-1.984,6.289,6.289,0,0,1,1.579-3.81c.026-.03.052-.06.076-.091A.259.259,0,0,0,535.929,3733.485Zm-.458,4.324a5.149,5.149,0,1,0,5.191-5.122A5.155,5.155,0,0,0,535.471,3737.809Zm-6.327-12.9c.024.03.039.051.057.069l7.661,7.654a.038.038,0,0,0,.018.008.206.206,0,0,0,.029.007l.225-.146c.078-.049.156-.1.236-.146s.16-.093.24-.138.162-.09.244-.132.166-.082.25-.12.17-.072.256-.1.174-.063.261-.093.162-.055.245-.079.178-.049.268-.07.18-.04.271-.056.182-.029.274-.042.183-.025.275-.036.183-.024.276-.03.185,0,.277-.009a1.4,1.4,0,0,0,.294-.015c-.065-.068-.111-.121-.161-.17l-8.639-8.64c-.07-.07-.139-.141-.211-.21a.986.986,0,0,0-.094-.072Zm15.02,7.595,7.714-7.712a.557.557,0,0,0,.047-.065.656.656,0,0,0-.052-.065q-1.248-1.247-2.5-2.492a.033.033,0,0,0-.018-.009.143.143,0,0,0-.041,0q-3.957,3.955-7.936,7.936c-.023.023-.041.049-.067.08a1,1,0,0,0,.067.079q.792.794,1.583,1.585a.61.61,0,0,0,.2.129,6.35,6.35,0,0,1,.892.472C544.084,3732.469,544.121,3732.484,544.164,3732.507Zm-7.482-6.97h7.547a1.467,1.467,0,0,1,.115-.14q1.667-1.67,3.336-3.337c.028-.028.057-.055.083-.085s.055-.041.029-.093H533.307c-.06,0-.119,0-.179,0-.03,0-.067-.008-.075.023Zm1.238,1.244c.044.053.068.089.1.12q1.155,1.157,2.312,2.312a1.352,1.352,0,0,0,.111.09c.1-.106.2-.207.3-.3l2.073-2.074c.039-.039.094-.07.1-.136-.2-.025-4.122-.038-4.9-.017C537.993,3726.772,537.969,3726.776,537.92,3726.781Z" fill="#fff"/>
    <path id="Контур_93" data-name="Контур 93" d="M539.329,3736.008c.115-.351.223-.684.332-1.016q.174-.537.35-1.073a.975.975,0,0,1,.054-.149.618.618,0,0,1,1.1-.013,1.186,1.186,0,0,1,.077.2q.3.922.6,1.845c.021.062.044.123.07.2.075,0,.146.008.217.008h1.943a.911.911,0,0,1,.217.012.609.609,0,0,1,.451.431.576.576,0,0,1-.14.587,1.065,1.065,0,0,1-.167.138q-.785.573-1.571,1.144c-.053.038-.105.079-.168.127.013.054.023.111.04.166q.3.913.594,1.827c.024.075.049.15.067.227a.568.568,0,0,1-.219.615.594.594,0,0,1-.653.066.959.959,0,0,1-.164-.109l-1.571-1.143c-.058-.042-.119-.082-.182-.125-.059.041-.114.077-.167.115l-1.571,1.143a1.333,1.333,0,0,1-.147.1.6.6,0,0,1-.672-.037.617.617,0,0,1-.228-.65c.108-.319.207-.641.31-.961l.348-1.074c.015-.049.026-.1.041-.155-.057-.045-.108-.086-.161-.125q-.792-.578-1.586-1.155a.76.76,0,0,1-.3-.361.613.613,0,0,1,.553-.8h2.3Zm2.26,3.129.028-.023c-.011-.044-.021-.088-.035-.131-.062-.195-.127-.389-.187-.585a.585.585,0,0,1,.188-.643,1.216,1.216,0,0,1,.111-.084l.48-.35c.024-.018.06-.031.049-.085h-.154c-.185,0-.37,0-.555,0a.643.643,0,0,1-.639-.465c-.055-.183-.119-.364-.18-.545-.016-.05-.037-.1-.062-.164-.025.06-.045.1-.059.145-.056.169-.11.339-.165.508a1.542,1.542,0,0,1-.054.149.612.612,0,0,1-.565.369c-.2.008-.41,0-.614,0-.043,0-.091-.016-.141.031.035.03.065.06.1.085.154.113.31.225.465.337a.666.666,0,0,1,.251.324.639.639,0,0,1-.008.427c-.066.2-.131.4-.2.6a.94.94,0,0,0-.021.11c.058-.038.1-.062.135-.089.155-.111.313-.221.464-.337a.63.63,0,0,1,.788-.005c.052.04.107.077.16.116Z" fill="#fff"/>
  </g>
</svg>
