<svg xmlns="http://www.w3.org/2000/svg" width="23.816" height="20.21" viewBox="0 0 23.816 20.21">
  <path id="Контур_104" data-name="Контур 104" d="M1556.367,4463.053a1.957,1.957,0,0,0-2.285-.438l-19.8,7.559c-1.172.448-1.33,1.151-1.319,1.529s.208,1.072,1.429,1.46l4,1.146,2.186,6.249a2.121,2.121,0,0,0,1.973,1.545,2.309,2.309,0,0,0,1.564-.66l2.406-2.216,3.544,2.853.049.038a2.337,2.337,0,0,0,1.423.531,2.019,2.019,0,0,0,1.938-1.779l3.244-16.021A2.117,2.117,0,0,0,1556.367,4463.053Zm-11.259,15.036-1.794,1.652.638-2.583Zm1.757-7.483-4.1,4.356a.9.9,0,0,0-.217.4l-.782,3.165-1.577-4.51Zm4.849-2.536a.9.9,0,0,0-1.06-1.413l-11.663,5.958-3.474-.994,19.205-7.331a.8.8,0,0,1,.258-.06.842.842,0,0,1-.019.263l-3.245,16.021c-.043.214-.126.341-.18.341a.6.6,0,0,1-.316-.148l-6.485-5.221Z" transform="translate(-1532.959 -4462.439)" fill="#fff"/>
</svg>
