<svg xmlns="http://www.w3.org/2000/svg" width="23.816" height="20.21" viewBox="0 0 23.816 20.21">
  <path id="Контур_5" data-name="Контур 5" d="M1098.115,29.341a1.959,1.959,0,0,0-2.286-.438l-19.8,7.559c-1.173.448-1.33,1.151-1.319,1.529s.207,1.072,1.429,1.46l4,1.146,2.185,6.249a2.123,2.123,0,0,0,1.974,1.545,2.31,2.31,0,0,0,1.564-.66l2.406-2.216,3.544,2.853.049.039a2.335,2.335,0,0,0,1.423.53,2.019,2.019,0,0,0,1.938-1.778l3.244-16.022A2.121,2.121,0,0,0,1098.115,29.341Zm-11.259,15.036-1.795,1.652.638-2.583Zm1.756-7.482-4.1,4.356a.9.9,0,0,0-.218.4l-.781,3.165-1.577-4.51Zm4.85-2.537a.9.9,0,0,0-1.061-1.413L1080.739,38.9l-3.474-.994,19.2-7.331a.834.834,0,0,1,.259-.06.852.852,0,0,1-.02.263L1093.464,46.8c-.044.214-.126.341-.18.341a.6.6,0,0,1-.317-.148l-6.484-5.221Z" transform="translate(-1074.708 -28.727)" fill="#003c8c"/>
</svg>
