<svg xmlns="http://www.w3.org/2000/svg" width="30.136" height="18.835" viewBox="0 0 30.136 18.835">
  <path id="Контур_103" data-name="Контур 103" d="M1491.479,4481.961c4.36,0,2.805-2.76,3.142-3.553-.005-.593-.01-1.163.01-1.51a6.7,6.7,0,0,1,2.274,1.717c2.078,2.1,2.609,3.346,4.288,3.346h3.09a2.037,2.037,0,0,0,1.744-.746,1.95,1.95,0,0,0,.224-1.8c-.69-2.165-4.71-5.9-4.96-6.3.037-.072.1-.169.129-.219h0c.793-1.049,3.822-5.587,4.268-7.4l0-.01a1.814,1.814,0,0,0-.208-1.671,1.921,1.921,0,0,0-1.631-.684h-3.091a2.276,2.276,0,0,0-2.216,1.472c-.664,1.689-2.53,5.162-3.929,6.391-.043-1.742-.014-3.071.009-4.059.045-1.928.191-3.8-1.809-3.8h-4.857c-1.254,0-2.453,1.369-1.154,2.994,1.135,1.424.408,2.217.653,6.167a23.1,23.1,0,0,1-3.853-7.319,2.261,2.261,0,0,0-2.281-1.841h-3.091a1.764,1.764,0,0,0-2,1.827c0,2.569,5.687,17.007,15.25,17.007Zm-10.158-16.95c.272,0,.3,0,.5.574,1.229,3.62,3.987,8.976,6,8.976,1.513,0,1.513-1.55,1.513-2.134v-4.649a4.44,4.44,0,0,0-1.011-2.768l4.405.005c0,.021-.025,5.142.012,6.382,0,1.762,1.4,2.771,3.583.561a26.826,26.826,0,0,0,3.961-6.646c.094-.226.176-.3.472-.3h3.1l0,.011c-.283,1.318-3.072,5.52-4.005,6.824q-.023.031-.042.063a1.875,1.875,0,0,0,.056,2.454h0c.073.088.263.294.539.58.859.886,3.805,3.918,4.066,5.123-.173.028-.362.008-3.281.014-.622,0-1.108-.929-2.962-2.8-1.668-1.623-2.75-2.286-3.736-2.286-1.914,0-1.774,1.554-1.757,3.432.007,2.037-.006,1.393.008,1.521a3.764,3.764,0,0,1-1.267.132c-7.967,0-13.156-12.646-13.355-15.063.069-.007,1.019,0,3.2,0Z" transform="translate(-1476.229 -4463.126)" fill="#fff"/>
</svg>
