<svg xmlns="http://www.w3.org/2000/svg" width="30.136" height="18.835" viewBox="0 0 30.136 18.835">
  <path id="Контур_4" data-name="Контур 4" d="M1033.227,48.249c4.359,0,2.8-2.76,3.141-3.553-.005-.593-.01-1.163.01-1.51a6.681,6.681,0,0,1,2.274,1.717c2.079,2.1,2.61,3.346,4.289,3.346h3.09a2.038,2.038,0,0,0,1.744-.746,1.949,1.949,0,0,0,.223-1.8c-.689-2.165-4.71-5.9-4.96-6.3.038-.073.1-.17.13-.22h0c.794-1.049,3.823-5.587,4.268-7.4l0-.01a1.808,1.808,0,0,0-.209-1.67,1.918,1.918,0,0,0-1.631-.685h-3.09a2.275,2.275,0,0,0-2.216,1.472c-.664,1.689-2.53,5.162-3.929,6.391-.043-1.741-.014-3.071.009-4.059.045-1.928.19-3.8-1.81-3.8H1029.7c-1.253,0-2.452,1.369-1.154,2.994,1.135,1.424.408,2.217.653,6.168a23.123,23.123,0,0,1-3.852-7.32,2.261,2.261,0,0,0-2.282-1.84h-3.09a1.764,1.764,0,0,0-2,1.827c0,2.569,5.687,17.006,15.25,17.006ZM1023.068,31.3c.273,0,.3,0,.5.574,1.229,3.62,3.986,8.977,6,8.977,1.514,0,1.514-1.551,1.514-2.135l0-4.649a4.438,4.438,0,0,0-1.011-2.768l4.405,0c0,.021-.025,5.142.013,6.382,0,1.762,1.4,2.772,3.582.562a26.853,26.853,0,0,0,3.962-6.647c.094-.226.176-.3.472-.3h3.1l0,.011c-.282,1.318-3.071,5.52-4,6.825-.015.02-.029.041-.043.062a1.877,1.877,0,0,0,.057,2.454h0c.073.088.262.294.539.58.859.887,3.8,3.918,4.066,5.123-.174.028-.362.008-3.281.014-.622,0-1.108-.929-2.963-2.8-1.667-1.622-2.75-2.285-3.735-2.285-1.914,0-1.774,1.553-1.757,3.431.006,2.037-.006,1.393.008,1.521a3.783,3.783,0,0,1-1.267.132c-7.967,0-13.156-12.646-13.356-15.063.07-.007,1.02,0,3.2,0Z" transform="translate(-1017.977 -29.414)" fill="#003c8c"/>
</svg>
