<svg xmlns="http://www.w3.org/2000/svg" width="19.681" height="19.681" viewBox="0 0 19.681 19.681">
  <g id="Сгруппировать_131" data-name="Сгруппировать 131" transform="translate(-1588.599 -4462.703)">
    <path id="Контур_105" data-name="Контур 105" d="M1603.161,4474.012c-.038-.018-1.473-.725-1.728-.817a1.012,1.012,0,0,0-.334-.073.565.565,0,0,0-.483.286c-.144.213-.578.72-.712.871-.017.02-.041.044-.055.044s-.235-.091-.3-.12a7.551,7.551,0,0,1-2.867-2.548.148.148,0,0,1-.024-.056.433.433,0,0,1,.084-.1c.078-.077.163-.179.245-.278.038-.046.077-.093.115-.137a1.573,1.573,0,0,0,.234-.37l.032-.065a.673.673,0,0,0-.02-.63c-.034-.067-.64-1.53-.7-1.683-.155-.371-.36-.544-.644-.544-.026,0,0,0-.111,0a3.449,3.449,0,0,0-1.193.307,2.5,2.5,0,0,0-.926,2.125,4.582,4.582,0,0,0,.993,2.521l.041.059a9.337,9.337,0,0,0,4.009,3.48,6.513,6.513,0,0,0,2.421.619h0a3.682,3.682,0,0,0,.394-.023l.071-.007a2.543,2.543,0,0,0,1.775-1.256,1.99,1.99,0,0,0,.113-1.307A.906.906,0,0,0,1603.161,4474.012Z" fill="#fff"/>
    <path id="Контур_106" data-name="Контур 106" d="M1598.613,4462.7a9.641,9.641,0,0,0-9.666,9.594,9.52,9.52,0,0,0,1.325,4.852l-1.66,4.9a.254.254,0,0,0,.242.337.263.263,0,0,0,.077-.012l5.107-1.623a9.616,9.616,0,1,0,4.575-18.046Zm0,17.189a7.664,7.664,0,0,1-4.213-1.256.25.25,0,0,0-.14-.042.27.27,0,0,0-.078.012l-2.558.813.826-2.436a.254.254,0,0,0-.036-.233,7.493,7.493,0,0,1-1.458-4.453,7.657,7.657,0,1,1,7.657,7.6Z" fill="#fff"/>
  </g>
</svg>
