<svg xmlns="http://www.w3.org/2000/svg" xmlns:xlink="http://www.w3.org/1999/xlink" width="49.361" height="44.921" viewBox="0 0 49.361 44.921">
  <defs>
    <linearGradient id="linear-gradient" x1="0.5" y1="1.072" x2="0.5" y2="0.139" gradientUnits="objectBoundingBox">
      <stop offset="0" stop-color="#c10010"/>
      <stop offset="0.117" stop-color="#a00a24"/>
      <stop offset="0.343" stop-color="#671b49"/>
      <stop offset="0.553" stop-color="#3a2966"/>
      <stop offset="0.739" stop-color="#1a337a"/>
      <stop offset="0.894" stop-color="#073987"/>
      <stop offset="1" stop-color="#003c8c"/>
    </linearGradient>
  </defs>
  <path id="Контур_9" data-name="Контур 9" d="M268.124,23.57l-24.811,12.8V68.491c9.511-5.419,22.461-5.746,22.461-5.746V61.178s-7.313-1.306-7.313-6.007,9.4-12.013,9.4-12.013,9.4,7.138,9.4,11.752c0,5.4-7.051,6.268-7.051,6.268a9.424,9.424,0,0,1,0,1.567c14.364.871,22.46,5.485,22.46,5.485v-31.6Zm20.633,39.959a35.206,35.206,0,0,0-9.141-2.351,7.205,7.205,0,0,0,3.395-6.268c0-5.876-13.842-13.189-13.842-14.1v-4.44h-2.35v4.44c0,.784-14.1,8.031-14.1,14.1a6.515,6.515,0,0,0,3.657,6.268s-6.791,1.176-9.664,2.351V39.5L267.6,28.532,288.757,39.5Z" transform="translate(-243.313 -23.57)" fill-rule="evenodd" fill="url(#linear-gradient)"/>
</svg>
